# xmcd
#
# Track frame offsets:
#	183
#	12140
#	22423
#	34130
#	45520
#	58860
#	68695
#	79560
#	89713
#	103705
#	120528
#	132798
#	150753
#	167028
#	186998
#	198438
#	215508
#	226110
#	239475
#	252818
#	262488
#	276895
#	289225
#	300225
#	311725
#
# Disc length: 4330 seconds
#
# Revision: 2
# Processed by: cddbd v1.4PL0 Copyright (c) Steve Scherf et al.
# Submitted via: audiograbber 1.82.02
#
DISCID=6210e819
DTITLE=Various Artist - 25 Super Soul Hits - Disk 4
DYEAR=1992
DGENRE=Soul
TTITLE0=Otis Redding - Shake
TTITLE1=Aretha Franklin - Think
TTITLE2=Sam and Dave - Soul Sister, Brown Sugar
TTITLE3=Lou Rawls - I'm Gonna Use What I Got
TTITLE4=Percy Sledge - When A Man Loves A Woman
TTITLE5=The Isley Brothers - Nobody But Me
TTITLE6=Wilson Pickett - Baby Call On Me
TTITLE7=James Brown - (Give It Up) Turn It Loose
TTITLE8=Commodores - I Know I'm Loosing You
TTITLE9=Solomon Burke - Hold On I'm Coming
TTITLE10=Aretha Franklin - I Never Loved A Man (The Way I Love You)
TTITLE11=Otis Redding - Cigarettes and Coffee
TTITLE12=Sly and The Family Stone - You Can't Make It If You Try
TTITLE13=James Brown - You Can't Keep A Good Man Down
TTITLE14=Lee Dorsey - Holy Cow
TTITLE15=Etta James - Respect Yourself
TTITLE16=Wilson Pickett - Robert's Monkey Beat
TTITLE17=Eddie Floyd - Knock On Wood
TTITLE18=Aretha Franklin - Don't Play That Song (You Lied)
TTITLE19=Ike and Tina Turner - Too Hot To Hold
TTITLE20=Commodores - Sing A Simple Song
TTITLE21=Joe Tex - I Had To Come Back
TTITLE22=Solomon Burke - Words
TTITLE23=Wilson Pickett - I Can't Stop
TTITLE24=Lee Dorsey - Ride Your Pony
EXTD=
EXTT0=
EXTT1=
EXTT2=
EXTT3=
EXTT4=
EXTT5=
EXTT6=
EXTT7=
EXTT8=
EXTT9=
EXTT10=
EXTT11=
EXTT12=
EXTT13=
EXTT14=
EXTT15=
EXTT16=
EXTT17=
EXTT18=
EXTT19=
EXTT20=
EXTT21=
EXTT22=
EXTT23=
EXTT24=
PLAYORDER=
